Coordinates
version=1
nRows=19
nColumns=36
inDegrees=yes

Units are S.I. units (second, meters, Newtons, ...)
If the header above contains a line with 'inDegrees', this indicates whether rotational values are in degrees (yes) or radians (no).

endheader
time	pelvis_tilt	pelvis_list	pelvis_rotation	pelvis_tx	pelvis_ty	pelvis_tz	hip_flexion_r	hip_adduction_r	hip_rotation_r	knee_angle_r	knee_angle_r_beta	ankle_angle_r	subtalar_angle_r	mtp_angle_r	hip_flexion_l	hip_adduction_l	hip_rotation_l	knee_angle_l	knee_angle_l_beta	ankle_angle_l	subtalar_angle_l	mtp_angle_l	lumbar_extension	lumbar_bending	lumbar_rotation	arm_flex_r	arm_add_r	arm_rot_r	elbow_flex_r	pro_sup_r	arm_flex_l	arm_add_l	arm_rot_l	elbow_flex_l	pro_sup_l
      4.00000000	    -19.40165124	     15.89030151	     10.81569590	      1.29410667	      0.75067474	     -0.03719607	     92.53196651	    -24.62671442	     11.84033314	     39.05543110	      0.68164586	     -8.09760947	     11.88547509	     -7.49999987	     73.38684321	     19.18056089	    -17.06189165	     77.11136273	      1.34584717	     27.62967214	     -4.52548510	     -7.49999987	    -42.46613017	    -12.83930722	    -18.25999046	     77.81846563	     -0.68275309	     62.38534902	    122.70462197	     63.84726705	     96.89906847	    -16.22371293	     84.42546593	    129.95786108	     58.00431642
      4.01666670	    -19.41110774	     16.07312061	     10.90938226	      1.29399967	      0.74857267	     -0.03677776	     92.71357838	    -24.86949831	     11.87668465	     38.98972868	      0.68049914	     -8.11230004	     12.31960490	     -7.49999987	     73.54006158	     19.17923990	    -17.31163472	     77.43350694	      1.35146965	     27.68987160	     -4.34762614	     -7.49999987	    -42.74696894	    -12.76343435	    -18.27205665	     77.67123487	     -0.49726952	     63.22023262	    122.67802465	     63.56270652	     96.95219168	    -16.06510838	     84.62987194	    130.23692125	     57.98579639
      4.03333330	    -19.51568799	     16.13118326	     10.96430179	      1.29369671	      0.74541759	     -0.03603494	     92.90146016	    -24.95600803	     11.92152655	     38.93894991	      0.67961288	     -8.12531956	     12.69296334	     -7.49999987	     73.73460688	     19.08763595	    -17.44544745	     77.76974212	      1.35733806	     27.83534882	     -4.10998413	     -7.49999987	    -42.91751211	    -12.74324845	    -18.15356636	     77.28898077	     -1.01494414	     63.47204927	    122.25170039	     63.32338166	     96.54738888	    -16.45318695	     84.49615289	    130.11117880	     58.01933389
      4.05000000	    -19.73493615	     16.20148325	     11.05051054	      1.29360708	      0.74293009	     -0.03561502	     93.22466135	    -25.00506091	     12.02269251	     38.89162697	      0.67878694	     -8.14624036	     12.95420295	     -7.49999987	     74.04594291	     19.02719032	    -17.63168684	     78.05086053	      1.36224450	     27.90768805	     -3.89677487	     -7.49999987	    -42.99859126	    -12.71434825	    -18.17525227	     77.48303554	     -1.34942026	     63.13154417	    122.04021896	     63.06929911	     96.68884170	    -16.39807493	     84.13726915	    130.53148339	     58.03533528
      4.06666670	    -20.05831245	     16.30898964	     11.18368912	      1.29346950	      0.74159003	     -0.03547613	     93.69932946	    -25.08281991	     12.13591363	     38.91223236	      0.67914657	     -8.05991517	     13.19663888	     -7.49999987	     74.44463084	     19.06559900	    -17.83786121	     78.24414302	      1.36561792	     28.07994365	     -3.64863982	     -7.49999987	    -42.98405348	    -12.79453626	    -18.41078536	     77.51297811	     -1.54666768	     63.42658437	    122.28699621	     62.85115850	     96.72752448	    -16.34607423	     83.96769531	    130.59039638	     57.97959179
      4.08333330	    -20.28752352	     16.38185717	     11.26830517	      1.29323810	      0.74197716	     -0.03572424	     94.01188319	    -25.14517606	     12.12994981	     38.86589925	      0.67833791	     -7.97602342	     13.51975753	     -7.49999987	     74.72328460	     19.12499285	    -17.95389867	     78.35917036	      1.36762552	     28.23037828	     -3.45379995	     -7.49999987	    -42.98922588	    -12.84405957	    -18.46767139	     77.36863923	     -1.40061675	     63.35992559	    122.78810867	     62.69443801	     96.55546486	    -16.50295142	     83.73234682	    130.93015586	     57.94536156
      4.10000000	    -20.42029836	     16.48282545	     11.34399437	      1.29317873	      0.74120992	     -0.03548452	     94.19666869	    -25.19708297	     12.11180202	     38.80190167	      0.67722094	     -7.94441107	     13.85405050	     -7.49999987	     74.92989785	     19.27647655	    -17.96775368	     78.42760718	      1.36881997	     28.27029707	     -3.52719191	     -7.49999987	    -42.87813246	    -12.96526524	    -18.51364266	     77.65514833	     -1.29857953	     64.36523716	    123.10290635	     62.54129263	     96.46653765	    -16.44687533	     83.31576548	    131.03195071	     57.79261605
      4.11666670	    -20.45129918	     16.44827524	     11.37111389	      1.29289190	      0.74212644	     -0.03579020	     94.14132668	    -25.24133201	     11.86085600	     38.63096827	      0.67423759	     -7.88976884	     14.40424962	     -7.49999987	     75.01476024	     19.40572854	    -17.78714888	     78.48826558	      1.36987866	     28.24885259	     -3.61061633	     -7.49999987	    -42.74431722	    -12.91356868	    -18.44181255	     78.11316014	     -0.80464210	     64.86146520	    123.44839886	     62.46128413	     96.22780964	    -16.52130234	     83.09010118	    131.20121228	     57.78965962
      4.13333330	    -20.34303846	     16.29655635	     11.25543015	      1.29285445	      0.74172457	     -0.03565290	     93.90160696	    -25.19206137	     11.44279113	     38.48789595	      0.67174051	     -8.02482884	     14.84377777	     -7.49999987	     74.98101264	     19.44672293	    -17.44746970	     78.63926147	      1.37251403	     28.34175262	     -3.74149201	     -7.49999987	    -42.50576615	    -12.80097233	    -18.20725218	     78.48597171	     -0.55646990	     64.61986246	    123.53736235	     62.30305809	     95.99876574	    -16.62210652	     82.72858283	    131.78042290	     57.89420812
      4.15000000	    -20.16983724	     16.33630347	     11.15612334	      1.29244419	      0.74554003	     -0.03614965	     93.58234818	    -25.17310127	     11.25919408	     38.32617792	      0.66891799	     -7.92044016	     15.33688773	     -7.49999987	     74.74907069	     19.58636258	    -17.30380258	     78.63350467	      1.37241356	     28.41249281	     -3.77667452	     -7.49999987	    -42.40989525	    -12.83070563	    -18.07877175	     78.60816279	     -0.28695752	     64.40236549	    122.95676977	     62.16774364	     95.95981477	    -16.69426267	     82.34413163	    131.73308645	     57.92516618
      4.16666670	    -20.05133792	     16.27296359	     11.09233914	      1.29251851	      0.74781352	     -0.03632021	     93.21067134	    -25.18374445	     10.95818533	     38.13565949	      0.66559282	     -7.90396466	     15.75262690	     -7.49999987	     74.50087661	     19.72761038	    -17.05188417	     78.56515509	      1.37122063	     28.56792350	     -3.74445137	     -7.49999987	    -42.25015047	    -12.70801559	    -17.95317655	     78.65760854	     -0.17599904	     64.62929631	    122.88885509	     62.08901474	     95.72101163	    -16.75448876	     82.10089193	    131.41103514	     57.96471897
      4.18333330	    -20.00766598	     16.19672027	     11.00688035	      1.29246836	      0.75104374	     -0.03672615	     92.77975310	    -25.22308014	     10.47310095	     37.76613113	      0.65914333	     -7.99612582	     16.29811630	     -7.49999987	     74.22077133	     19.87747592	    -16.79089516	     78.34264053	      1.36733702	     28.67650729	     -3.73550527	     -7.49999987	    -42.00128462	    -12.57559197	    -17.71923951	     78.64676258	      0.00765509	     64.74228041	    123.13264862	     62.01300030	     95.55924713	    -16.78048787	     81.99703535	    131.47043872	     58.02747266
      4.20000000	    -19.90057454	     16.05939826	     11.07868714	      1.28824418	      0.75627300	     -0.03398369	     92.19192248	    -25.40070621	      9.90300947	     37.32194699	      0.65139086	     -8.07758605	     16.87635487	     -7.49999987	     73.81321865	     20.08778461	    -16.45272697	     77.96418457	      1.36073172	     28.57065096	     -3.97716731	     -7.49999987	    -42.00515520	    -12.44399720	    -17.64313863	     79.28388755	      0.19609812	     63.10281129	    123.13003899	     61.89021822	     96.37356239	    -16.76131879	     81.59632520	    132.43749798	     57.82716148
      4.21666670	    -19.92165491	     16.05216790	     10.97328897	      1.29832357	      0.75826895	     -0.03235527	     91.66121942	    -25.37322354	      9.46586016	     36.71795521	      0.64084921	     -8.04702104	     17.20504475	     -7.49999987	     73.31945134	     20.22191001	    -16.16875347	     77.46585189	      1.35203417	     28.66904120	     -3.91076387	     -7.49999987	    -41.54370162	    -12.81878226	    -17.70657953	     78.70111509	      0.19277940	     62.95650714	    123.12171502	     61.86980553	     96.13849134	    -16.73961260	     81.48764570	    132.93020455	     57.78863514
      4.23333330	    -19.68713604	     15.77832993	     10.69305264	      1.29828644	      0.76028652	     -0.03246206	     90.76764958	    -25.23396384	      8.70869454	     36.17304901	      0.63133881	     -8.03306116	     18.01436756	     -7.49999987	     72.64112961	     20.11963872	    -15.60642074	     77.17879952	      1.34702416	     28.88376046	     -3.68038183	     -7.49999987	    -41.04974351	    -12.81923997	    -17.39874142	     77.97444569	      0.55182322	     63.21257533	    123.77944192	     61.87618475	     94.72326437	    -17.25059181	     80.14137994	    133.55875209	     57.66038233
      4.25000000	    -19.53165831	     15.57181739	     10.39626021	      1.29879505	      0.76664657	     -0.03248272	     89.77574525	    -25.05427841	      8.02458393	     35.47390682	      0.61913647	     -7.92208405	     18.64283704	     -7.49999987	     71.86371179	     20.05476470	    -15.03806968	     76.62796025	      1.33741021	     29.06218372	     -3.40909543	     -7.49999987	    -40.56544686	    -12.88498087	    -17.16726032	     77.28169534	      0.31549549	     62.57971580	    123.00027618	     61.91284485	     93.93013980	    -17.92693652	     79.75218008	    133.43297212	     57.63878800
      4.26666670	    -19.39893042	     15.39805008	     10.14000315	      1.29912516	      0.77019963	     -0.03171183	     88.85477049	    -24.87555756	      7.42628325	     34.83530485	      0.60799077	     -7.95583190	     19.31935686	     -7.49999987	     71.10161712	     19.99020833	    -14.56896118	     76.03801032	      1.32711364	     29.24034328	     -3.25404791	     -7.49999987	    -39.88628642	    -13.06978873	    -16.77133923	     77.66511840	      1.43418013	     62.90150611	    124.16378817	     62.03064552	     93.45488170	    -17.93122830	     78.89631495	    134.04309081	     57.72459438
      4.28333330	    -18.89103744	     15.03195726	      9.88381063	      1.29999165	      0.78823511	     -0.03151162	     87.07985140	    -24.83272205	      6.32851953	     33.73965645	      0.58886809	     -7.77624050	     20.02476156	     -7.49999987	     69.66082019	     20.00334823	    -13.71355227	     75.09726765	      1.31069458	     29.49382316	     -2.98526807	     -7.49999987	    -40.19119266	    -12.68806733	    -16.36463292	     77.64431068	      0.89124641	     63.66632560	    124.39571816	     62.30115659	     92.81843089	    -17.57003415	     78.83387962	    133.31310442	     58.27717000
      4.30000000	    -18.70608342	     14.80981621	      9.80246835	      1.30065795	      0.79293074	     -0.03103684	     85.63631357	    -24.94280027	      5.17827797	     32.55584719	      0.56820672	     -7.84413405	     21.14574131	     -7.49999987	     68.41642270	     20.17486272	    -13.02374240	     73.88588234	      1.28955192	     29.35275836	     -3.08323925	     -7.49999987	    -39.75871865	    -12.74528430	    -16.14102993	     77.41612478	      1.28305750	     63.55061639	    124.63599028	     62.59582136	     92.83794576	    -16.89207152	     77.17853978	    133.43193995	     58.18855464
